<?xml version="1.0" encoding="UTF-8"?>
<!DOCTYPE svg PUBLIC "-//W3C//DTD SVG 1.1//EN" "http://www.w3.org/Graphics/SVG/1.1/DTD/svg11.dtd">
<svg xmlns="http://www.w3.org/2000/svg" version="1.1" width="660px" height="571px"
     style="shape-rendering:geometricPrecision; text-rendering:geometricPrecision; image-rendering:optimizeQuality; fill-rule:evenodd; clip-rule:evenodd">
<g><path style="opacity:0.999" fill="#76bbbc" d="M 607.5,177.5 C 602.833,177.5 598.167,177.5 593.5,177.5C 593.5,240.833 593.5,304.167 593.5,367.5C 602.5,367.5 611.5,367.5 620.5,367.5C 606.494,409.867 582.327,445.2 548,473.5C 539.129,482.702 530.629,492.202 522.5,502C 520.5,502.667 518.5,503.333 516.5,504C 497.528,519.484 478.195,534.484 458.5,549C 436.479,550.654 414.479,552.488 392.5,554.5C 379.89,554.847 367.89,552.347 356.5,547C 339.83,536.252 332.83,521.252 335.5,502C 344.127,499.791 352.46,496.791 360.5,493C 331.767,490.658 303.101,487.658 274.5,484C 236.953,479.491 203.119,465.991 173,443.5C 173.642,445.807 174.642,448.141 176,450.5C 176.495,452.473 176.662,454.473 176.5,456.5C 169.275,453.778 164.108,448.778 161,441.5C 158.833,439.333 156.667,437.167 154.5,435C 156.329,433.887 157.163,432.387 157,430.5C 149.357,423.189 142.024,415.523 135,407.5C 136.303,414.402 137.47,421.402 138.5,428.5C 138.167,429.833 137.833,431.167 137.5,432.5C 133.343,429.511 128.843,427.177 124,425.5C 122.739,425.759 121.739,426.426 121,427.5C 120.61,432.844 120.11,438.178 119.5,443.5C 119.594,445.923 120.094,448.256 121,450.5C 127.509,462.86 134.509,474.86 142,486.5C 144.942,491.495 146.776,496.828 147.5,502.5C 134.493,503.418 122.66,500.084 112,492.5C 104.405,481.635 97.0721,470.635 90,459.5C 86.5033,451.518 84.3367,443.185 83.5,434.5C 81.6367,431.288 78.97,429.288 75.5,428.5C 75.4734,425.77 76.1401,423.27 77.5,421C 77.3333,420.167 77.1667,419.333 77,418.5C 74.828,417.415 72.828,416.081 71,414.5C 69.0185,407.95 68.3519,401.283 69,394.5C 73.0608,403.622 77.3942,412.622 82,421.5C 80.314,405.718 77.6473,390.052 74,374.5C 73.1629,370.843 71.3296,367.843 68.5,365.5C 96.8787,374.191 124.879,373.024 152.5,362C 192.671,341.175 210.504,308.008 206,262.5C 195.553,218.056 167.719,192.223 122.5,185C 94.2162,181.317 68.2162,187.151 44.5,202.5C 52.8436,186.315 61.8436,170.482 71.5,155C 70.5509,154.383 69.7175,154.549 69,155.5C 67.4138,157.67 66.0804,160.004 65,162.5C 64.7434,159.983 65.4101,157.65 67,155.5C 69.964,151.534 73.2974,147.867 77,144.5C 86.7491,128 96.7491,111.666 107,95.5C 122.808,78.0166 140.975,63.5166 161.5,52C 180.06,40.0544 200.06,31.3877 221.5,26C 239.271,23.205 256.937,19.8716 274.5,16C 295.809,14.7905 317.142,14.1238 338.5,14C 354.393,10.2548 370.393,7.08814 386.5,4.5C 399.471,5.65539 411.471,9.65539 422.5,16.5C 449.99,12.2862 475.656,17.4528 499.5,32C 527.068,48.2292 550.234,69.3958 569,95.5C 575.738,107.348 578.405,120.015 577,133.5C 589.406,146.656 599.573,161.322 607.5,177.5 Z"/></g>
<g><path style="opacity:1" fill="#000000" d="M 550.5,290.5 C 549.502,315.661 549.169,340.995 549.5,366.5C 529.5,366.5 509.5,366.5 489.5,366.5C 489.831,340.995 489.498,315.661 488.5,290.5C 482.833,290.5 477.167,290.5 471.5,290.5C 471.5,273.5 471.5,256.5 471.5,239.5C 477.5,239.5 483.5,239.5 489.5,239.5C 489.5,234.833 489.5,230.167 489.5,225.5C 492.334,187.5 512.834,168.167 551,167.5C 558.531,167.895 566.031,168.561 573.5,169.5C 573.5,186.833 573.5,204.167 573.5,221.5C 556.917,216.432 549.25,222.432 550.5,239.5C 558.167,239.5 565.833,239.5 573.5,239.5C 573.5,256.5 573.5,273.5 573.5,290.5C 565.833,290.5 558.167,290.5 550.5,290.5 Z"/></g>
<g><path style="opacity:0.998" fill="#010202" d="M 607.5,177.5 C 623.5,177.5 639.5,177.5 655.5,177.5C 655.5,240.833 655.5,304.167 655.5,367.5C 643.833,367.5 632.167,367.5 620.5,367.5C 611.5,367.5 602.5,367.5 593.5,367.5C 593.5,304.167 593.5,240.833 593.5,177.5C 598.167,177.5 602.833,177.5 607.5,177.5 Z"/></g>
<g><path style="opacity:0.996" fill="#000000" d="M 68.5,365.5 C 65.3821,364.441 62.3821,363.108 59.5,361.5C 55.7128,359.772 52.0461,357.772 48.5,355.5C 20.9346,337.049 6.9346,311.049 6.5,277.5C 6.76153,245.974 19.4282,220.974 44.5,202.5C 68.2162,187.151 94.2162,181.317 122.5,185C 167.719,192.223 195.553,218.056 206,262.5C 210.504,308.008 192.671,341.175 152.5,362C 124.879,373.024 96.8787,374.191 68.5,365.5 Z"/></g>
<g><path style="opacity:1" fill="#010101" d="M 321.5,227.5 C 341.928,226.214 357.595,234.214 368.5,251.5C 382.714,231.048 401.714,224.215 425.5,231C 439.441,238.011 448.274,249.178 452,264.5C 453.481,270.757 454.481,277.09 455,283.5C 455.5,311.498 455.667,339.498 455.5,367.5C 435.167,367.5 414.833,367.5 394.5,367.5C 394.667,342.164 394.5,316.831 394,291.5C 392.274,282.407 387.107,279.24 378.5,282C 376.877,284.08 375.377,286.246 374,288.5C 373.5,314.831 373.333,341.165 373.5,367.5C 352.833,367.5 332.167,367.5 311.5,367.5C 311.667,341.165 311.5,314.831 311,288.5C 308.396,281.28 303.563,279.114 296.5,282C 294.383,283.731 292.883,285.898 292,288.5C 291.5,314.831 291.333,341.165 291.5,367.5C 270.833,367.5 250.167,367.5 229.5,367.5C 229.5,322.167 229.5,276.833 229.5,231.5C 249.5,231.5 269.5,231.5 289.5,231.5C 290.69,236.571 292.19,241.571 294,246.5C 301.096,237.046 310.263,230.712 321.5,227.5 Z"/></g>
<g><path style="opacity:1" fill="#3d6061" d="M 489.5,225.5 C 489.5,230.167 489.5,234.833 489.5,239.5C 483.5,239.5 477.5,239.5 471.5,239.5C 471.5,256.5 471.5,273.5 471.5,290.5C 470.503,273.341 470.17,256.008 470.5,238.5C 476.5,238.5 482.5,238.5 488.5,238.5C 488.182,233.968 488.515,229.634 489.5,225.5 Z"/></g>
<g><path style="opacity:1" fill="#75b9ba" d="M 102.5,246.5 C 118.362,246.2 128.862,253.534 134,268.5C 136.803,281.467 133.636,292.633 124.5,302C 109.378,312.115 95.878,310.281 84,296.5C 74.9277,279.96 77.0944,265.127 90.5,252C 94.4813,249.838 98.4813,248.005 102.5,246.5 Z"/></g>
<g><path style="opacity:0.971" fill="#75baba" d="M 48.5,355.5 C 52.0461,357.772 55.7128,359.772 59.5,361.5C 61.2932,368.214 63.2932,374.881 65.5,381.5C 64.635,382.583 63.635,382.749 62.5,382C 55.3411,374.517 50.6745,365.684 48.5,355.5 Z"/></g>
<g><path style="opacity:1" fill="#162323" d="M 488.5,290.5 C 489.498,315.661 489.831,340.995 489.5,366.5C 509.5,366.5 529.5,366.5 549.5,366.5C 549.169,340.995 549.502,315.661 550.5,290.5C 550.5,316.167 550.5,341.833 550.5,367.5C 529.833,367.5 509.167,367.5 488.5,367.5C 488.5,341.833 488.5,316.167 488.5,290.5 Z"/></g>
<g><path style="opacity:0.925" fill="#75bdbe" d="M 46.5,378.5 C 48.4741,380.428 49.9741,382.761 51,385.5C 50.9909,391.445 52.1576,397.112 54.5,402.5C 55.4277,400.665 56.5944,400.332 58,401.5C 65.8871,415.326 72.7204,429.66 78.5,444.5C 75.4973,443.358 72.9973,441.024 71,437.5C 67.0011,428.179 63.0011,418.845 59,409.5C 57.6152,408.449 56.6152,407.116 56,405.5C 55.586,405.957 55.086,406.291 54.5,406.5C 53.2468,403.743 51.4135,401.409 49,399.5C 47.9194,392.522 47.086,385.522 46.5,378.5 Z"/></g>
<g><path style="opacity:0.881" fill="#76bbbc" d="M 289.5,530.5 C 291.199,530.34 292.866,530.506 294.5,531C 298.34,533.952 302.673,535.952 307.5,537C 310.062,538.268 310.728,540.102 309.5,542.5C 303.167,539.333 296.833,536.167 290.5,533C 289.748,532.329 289.414,531.496 289.5,530.5 Z"/></g>
<g><path style="opacity:0.955" fill="#75bdbe" d="M 263.5,536.5 C 267.161,535.892 270.327,537.225 273,540.5C 273.725,543.377 273.225,546.043 271.5,548.5C 273.361,549.528 274.695,551.028 275.5,553C 274.5,553.667 273.5,553.667 272.5,553C 271,550.167 268.833,548 266,546.5C 265.219,545.056 265.386,543.723 266.5,542.5C 270.943,543.796 271.609,542.629 268.5,539C 266.922,537.906 265.255,537.072 263.5,536.5 Z"/></g>
<g><path style="opacity:0.727" fill="#75bbbc" d="M 314.5,546.5 C 318.346,546.545 322.013,547.378 325.5,549C 327.155,550.444 327.822,552.278 327.5,554.5C 324.201,553.624 320.868,553.457 317.5,554C 320.464,557.966 323.797,561.633 327.5,565C 320.122,564.445 312.789,563.279 305.5,561.5C 307.226,559.97 309.226,558.97 311.5,558.5C 312.504,559.154 313.504,559.987 314.5,561C 321.778,563.562 322.445,562.228 316.5,557C 313.672,554.752 310.672,552.752 307.5,551C 312.086,550.803 316.586,551.303 321,552.5C 322.489,551.576 322.656,550.576 321.5,549.5C 318.655,549.234 316.322,548.234 314.5,546.5 Z"/></g>
</svg>
